<svg id="Layer_1" data-name="Layer 1" xmlns="http://www.w3.org/2000/svg" viewBox="0 0 258.08 134.75"><title>malik-portfolio</title><path d="M457.16,323.87V396.5h-9.55V342.34L423.47,396.5h-6.71l-24.25-54.27V396.5H383V323.87h10.29l26.86,60,26.87-60Z" transform="translate(-382.96 -316.62)"/><path d="M473.33,352.05a25.81,25.81,0,0,1,9.81-10.34A26.9,26.9,0,0,1,497.05,338a25.47,25.47,0,0,1,13.11,3.25,21.7,21.7,0,0,1,8.3,8.19V339h9.65V396.5h-9.65V385.79a22.49,22.49,0,0,1-8.45,8.34,25.24,25.24,0,0,1-13.07,3.31,26,26,0,0,1-13.85-3.78,26.42,26.42,0,0,1-9.76-10.6,33,33,0,0,1-3.57-15.53A32.28,32.28,0,0,1,473.33,352.05Zm42.5,4.25a18.51,18.51,0,0,0-7.08-7.4,20.1,20.1,0,0,0-19.58,0,18.24,18.24,0,0,0-7,7.34,23.39,23.39,0,0,0-2.62,11.34A23.89,23.89,0,0,0,482.14,379a18.54,18.54,0,0,0,7,7.45,19,19,0,0,0,9.76,2.57,19.28,19.28,0,0,0,9.82-2.57,18.46,18.46,0,0,0,7.08-7.45,23.68,23.68,0,0,0,2.63-11.39A23.35,23.35,0,0,0,515.83,356.3Z" transform="translate(-382.96 -316.62)"/><path d="M553.82,318.83V396.5h-9.55V318.83Z" transform="translate(-382.96 -316.62)"/><path d="M570.41,327.75A6.51,6.51,0,0,1,575,316.62a6,6,0,0,1,4.47,1.89,6.75,6.75,0,0,1,0,9.24,6,6,0,0,1-4.47,1.89A6.26,6.26,0,0,1,570.41,327.75ZM579.64,339V396.5h-9.55V339Z" transform="translate(-382.96 -316.62)"/><path d="M628,396.5l-22.56-25.4v25.4h-9.55V318.83h9.55v45.65L627.6,339h13.34l-27.08,28.65L641,396.5Z" transform="translate(-382.96 -316.62)"/><path d="M407.11,425.41q-4,3.36-11.73,3.35h-11v22.13H383V401.76h12.42q8.1,0,11.9,3.55t3.81,10Q411.09,422.07,407.11,425.41Zm-.81-1.25q3.39-3.15,3.39-8.87,0-6-3.35-9.07t-11-3.07h-11V427.3h11Q402.93,427.3,406.3,424.16Z" transform="translate(-382.96 -316.62)"/><path d="M427.07,449a16.82,16.82,0,0,1-6.6-6.7,23.28,23.28,0,0,1,0-20.59,16.82,16.82,0,0,1,6.6-6.7,20.13,20.13,0,0,1,18.84,0,16.54,16.54,0,0,1,6.56,6.7,23.55,23.55,0,0,1,0,20.59,16.54,16.54,0,0,1-6.56,6.7,20.13,20.13,0,0,1-18.84,0Zm17.79-.91a15.35,15.35,0,0,0,6.22-6,22.49,22.49,0,0,0,0-20.1,15.38,15.38,0,0,0-6.22-6,17.85,17.85,0,0,0-8.37-2,18.1,18.1,0,0,0-8.41,2,15.25,15.25,0,0,0-6.25,6.07,22.35,22.35,0,0,0,0,20,15.25,15.25,0,0,0,6.25,6.07,18.1,18.1,0,0,0,8.41,2A17.85,17.85,0,0,0,444.86,448.13Z" transform="translate(-382.96 -316.62)"/><path d="M481.22,412.36v1.54h-.62a15.27,15.27,0,0,0-10.09,3.45q-4.15,3.47-4.15,11.13v22.41H465V413.2h1.4v9.14Q468.6,412.37,481.22,412.36Z" transform="translate(-382.96 -316.62)"/><path d="M491.55,414.6V441a14,14,0,0,0,.77,5.23,4.63,4.63,0,0,0,2.44,2.55,12,12,0,0,0,4.68.73h4v1.4H499.3c-3.26,0-5.6-.75-7-2.23s-2.13-4.05-2.13-7.68V414.6H484v-1.4h6.14v-9.63h1.39v9.63h11.87v1.4Z" transform="translate(-382.96 -316.62)"/><path d="M517.51,403q-2.37,2.34-2.37,7.57v2.65H526v1.47H515.14v36.22h-1.39V414.67H507.6V413.2h6.15v-2.65c0-3.82.93-6.65,2.79-8.51s5-2.8,9.42-2.8v1.4C521.91,400.64,519.1,401.42,517.51,403Z" transform="translate(-382.96 -316.62)"/><path d="M541.59,449a16.74,16.74,0,0,1-6.59-6.7,23.19,23.19,0,0,1,0-20.59,16.74,16.74,0,0,1,6.59-6.7,20.13,20.13,0,0,1,18.84,0,16.56,16.56,0,0,1,6.57,6.7,23.55,23.55,0,0,1,0,20.59,16.56,16.56,0,0,1-6.57,6.7,20.13,20.13,0,0,1-18.84,0Zm17.8-.91a15.26,15.26,0,0,0,6.21-6,22.49,22.49,0,0,0,0-20.1,15.3,15.3,0,0,0-6.21-6,17.89,17.89,0,0,0-8.38-2,18.13,18.13,0,0,0-8.41,2,15.16,15.16,0,0,0-6.24,6.07,22.35,22.35,0,0,0,0,20,15.16,15.16,0,0,0,6.24,6.07,18.13,18.13,0,0,0,8.41,2A17.89,17.89,0,0,0,559.39,448.13Z" transform="translate(-382.96 -316.62)"/><path d="M580.88,399.24v51.65h-1.39V399.24Z" transform="translate(-382.96 -316.62)"/><path d="M592.15,403.05a1.85,1.85,0,0,1-.52-1.37,1.81,1.81,0,0,1,.52-1.35,1.85,1.85,0,0,1,2.59,0,1.85,1.85,0,0,1,.52,1.35,1.9,1.9,0,0,1-.52,1.37,1.87,1.87,0,0,1-2.59,0Zm2,10.15v37.69h-1.39V413.2Z" transform="translate(-382.96 -316.62)"/><path d="M613.26,449a16.74,16.74,0,0,1-6.59-6.7,23.19,23.19,0,0,1,0-20.59,16.74,16.74,0,0,1,6.59-6.7,20.15,20.15,0,0,1,18.85,0,16.6,16.6,0,0,1,6.56,6.7,23.55,23.55,0,0,1,0,20.59,16.6,16.6,0,0,1-6.56,6.7,20.15,20.15,0,0,1-18.85,0Zm17.8-.91a15.26,15.26,0,0,0,6.21-6,22.49,22.49,0,0,0,0-20.1,15.3,15.3,0,0,0-6.21-6,18.68,18.68,0,0,0-16.78,0A15.13,15.13,0,0,0,608,422a22.35,22.35,0,0,0,0,20,15.13,15.13,0,0,0,6.25,6.07,18.68,18.68,0,0,0,16.78,0Z" transform="translate(-382.96 -316.62)"/></svg>